<svg xmlns="http://www.w3.org/2000/svg" width="142" height="42" fill="none"><path fill="#fff" d="m6.3 18.9 2.1-1 3.4-5.1 1-.5 1.1 5.2-1.4.2-1.1-2.1-.9 3.3h3.7l3.8 1 1.5-1 2.5 2.7 1.1-5 1.8 1.9 1.1-1.6 1.8-.5 2.6-2.4.4-1.2 2.2.3.9 1.2-1.6 3.4 4-2v-1l1.4-.4 1.7 1.7 1.6-2v-1.5l2.7-1.9L44.8 9h1.7l3-6.3L52.3 0l1 1.6-1.6 2 .6 1.2 1.4.3 1.2 5.2v4.4l2 2.8 1.1 4-3.6-2.3-1.6-6.7-1 .3v4.5L49 21.6l-.7 6.5 1.8.4.7-.9 1.7 2 1.3 6-.1 3.7H52l-.6-5.3-1.1 1.6-2.6-.6-2-1.7-2.4.8.1 3.8-1.8.5-2.8 2.1-3.3-.4-1.3-.8-2 .4.6.8-1.6 1-1.3-.6-2.5 1.1-3.8-1.9-1.4-3.4-1.3.2-1.4-1.2v-1l-4.7-.5-.8 2.6-2.8-1.4L9.7 33h-3l-.4 4-1.8.5-1 3.6-.6-.7L0 33l3.4-1.7L3 28l-.6-3.4L4 22.3 3.4 21l2-2.3.9.2ZM52 27.2l3.2 4.8 1-.4-1.3-2-2.9-3.1v.7Zm-32.3-9.7V16l2.4-1.8 2-1h-2.3l-2.2 1.2-1.3 1.2v1.8h1.4ZM72.5 33.1h3.8V29h2.1c3.2 0 5.3-1.9 5.3-4.9 0-3-2-5-5.2-5h-6v14.1Zm3.8-7.1v-4h1.3c1.4 0 2.2.8 2.2 2s-.8 2-2.2 2h-1.3ZM90 33.3c3.5 0 5.5-2.2 5.5-5.4 0-3.3-2-5.5-5.5-5.5-3.4 0-5.4 2.2-5.4 5.5 0 3.2 2 5.4 5.4 5.4Zm0-2.8c-1 0-1.5-1-1.5-2.7 0-1.6.6-2.6 1.6-2.6s1.5 1 1.5 2.6c0 1.7-.6 2.7-1.5 2.7ZM102.1 33.3c3.1 0 5-1.8 5-4.6h-3.4c-.1 1.1-.7 1.7-1.5 1.7-1 0-1.7-.8-1.7-2.6 0-1.7.7-2.6 1.7-2.6.8 0 1.4.6 1.5 1.7h3.5c0-2.7-2-4.5-5-4.5-3.5 0-5.5 2.2-5.5 5.5 0 3.2 2 5.4 5.4 5.4ZM113.8 33.3c3.1 0 5-1.8 5-4.6h-3.4c-.1 1.1-.7 1.7-1.5 1.7-1 0-1.7-.8-1.7-2.6 0-1.7.7-2.6 1.7-2.6.8 0 1.4.6 1.5 1.7h3.5c0-2.7-2-4.5-5-4.5-3.5 0-5.5 2.2-5.5 5.5 0 3.2 2 5.4 5.4 5.4ZM124 28.3v-5.8h-3.6v10.6h3.6l3-5.7V33h3.5V22.5H127l-2.9 5.8ZM138.5 33.1h3.5V22.5h-5c-3 0-4.9 1.6-4.9 3.7 0 1.2.7 2.2 2 2.8l-2 4.1h3.4l1.8-3.5h1.2v3.5Zm0-5.8H137c-1 0-1.4-.5-1.4-1 0-.4.4-1 1.4-1h1.4v2Z"/></svg>